<svg id="Layer_1" data-name="Layer 1" xmlns="http://www.w3.org/2000/svg" viewBox="0 0 1024 341.53"><path d="M173.91,220.7a53.07,53.07,0,0,1-106.14,0V0H0V220.7a120.83,120.83,0,0,0,241.66,0V0H173.9V220.7Z" style="fill:#fff"/><path d="M903.17,0A121,121,0,0,0,782.34,120.83V341.52H850.1V300H956.24v41.56H1024V120.84A121,121,0,0,0,903.17,0ZM850.1,232.21V120.84a53.07,53.07,0,0,1,106.14,0V232.21Z" style="fill:#fff"/><path d="M599,0a120.47,120.47,0,0,0-87,37,120.77,120.77,0,0,0-207.78,83.81v220.7H372V120.83a53.07,53.07,0,0,1,106.14,0v220.7h67.76V120.83a53.07,53.07,0,1,1,106.14,0v220.7h67.76V120.83A121,121,0,0,0,599,0Z" style="fill:#fff"/></svg>